HIERARCHY
ROOT Pelvis
{
	OFFSET 0.000000 0.000000 0.000000
	CHANNELS 6 Xposition Yposition Zposition Xrotation Yrotation Zrotation
	JOINT LeftUpLeg_virtual
	{
		OFFSET 0.000000 0.000000 0.000000
		CHANNELS 3 Xrotation Yrotation Zrotation
		JOINT LeftUpLeg
		{
			OFFSET 18.735201 -5.666702 -4.541200
			CHANNELS 3 Xrotation Yrotation Zrotation
			JOINT LeftLeg
			{
				OFFSET -0.021200 -31.938179 0.493100
				CHANNELS 3 Xrotation Yrotation Zrotation
				JOINT LeftFoot
				{
					OFFSET 0.021200 -31.938179 -4.336299
					CHANNELS 3 Xrotation Yrotation Zrotation
					JOINT LeftToeBase
					{
						OFFSET 0.943001 -26.722000 15.023500
						CHANNELS 3 Xrotation Yrotation Zrotation
						End Site
						{
							OFFSET 0 0 0
						}
					}
				}
			}
		}
	}
	JOINT RightUpLeg_virtual
	{
		OFFSET 0.000000 0.000000 0.000000
		CHANNELS 3 Xrotation Yrotation Zrotation
		JOINT RightUpLeg
		{
			OFFSET -18.735201 -5.666702 -4.541200
			CHANNELS 3 Xrotation Yrotation Zrotation
			JOINT RightLeg
			{
				OFFSET 0.018946 -31.938133 0.493100
				CHANNELS 3 Xrotation Yrotation Zrotation
				JOINT RightFoot
				{
					OFFSET -0.018946 -31.938126 -4.336299
					CHANNELS 3 Xrotation Yrotation Zrotation
					JOINT RightToeBase
					{
						OFFSET -0.943001 -26.722004 15.023500
						CHANNELS 3 Xrotation Yrotation Zrotation
						End Site
						{
							OFFSET 0 0 0
						}
					}
				}
			}
		}
	}
	JOINT Hips_virtual
	{
		OFFSET 0.000000 0.000000 0.000000
		CHANNELS 3 Xrotation Yrotation Zrotation
		JOINT Hips
		{
			OFFSET -0.000000 -0.000000 -0.000000
			CHANNELS 3 Xrotation Yrotation Zrotation
			JOINT Spine
			{
				OFFSET 0.000000 10.199997 -0.299500
				CHANNELS 3 Xrotation Yrotation Zrotation
				JOINT Spine1
				{
					OFFSET 0.000000 11.900002 -1.516600
					CHANNELS 3 Xrotation Yrotation Zrotation
					JOINT Spine2
					{
						OFFSET 0.000000 13.600006 -2.842500
						CHANNELS 3 Xrotation Yrotation Zrotation
						JOINT Neck_virtual
						{
							OFFSET 0.000000 0.000000 0.000000
							CHANNELS 3 Xrotation Yrotation Zrotation
							JOINT Neck
							{
								OFFSET 0.000000 9.624100 -2.890100
								CHANNELS 3 Xrotation Yrotation Zrotation
								JOINT Head
								{
									OFFSET 0.000000 14.068802 -1.351900
									CHANNELS 3 Xrotation Yrotation Zrotation
									End Site
									{
										OFFSET 0 0 0
									}
								}
							}
						}
						JOINT LeftShoulder_virtual
						{
							OFFSET 0.000000 0.000000 0.000000
							CHANNELS 3 Xrotation Yrotation Zrotation
							JOINT LeftShoulder
							{
								OFFSET 15.263000 10.923401 -0.547700
								CHANNELS 3 Xrotation Yrotation Zrotation
								JOINT LeftArm
								{
									OFFSET 25.438599 -2.830597 -13.032500
									CHANNELS 3 Xrotation Yrotation Zrotation
									JOINT LeftForeArm
									{
										OFFSET 29.960503 0.000000 0.000000
										CHANNELS 3 Xrotation Yrotation Zrotation
										JOINT LeftHand
										{
											OFFSET 27.849251 0.000000 0.000000
											CHANNELS 3 Xrotation Yrotation Zrotation
											End Site
											{
												OFFSET 0 0 0
											}
										}
									}
								}
							}
						}
						JOINT RightShoulder_virtual
						{
							OFFSET 0.000000 0.000000 0.000000
							CHANNELS 3 Xrotation Yrotation Zrotation
							JOINT RightShoulder
							{
								OFFSET -15.263000 10.923401 -0.547700
								CHANNELS 3 Xrotation Yrotation Zrotation
								JOINT RightArm
								{
									OFFSET -25.438599 -2.830597 -13.032500
									CHANNELS 3 Xrotation Yrotation Zrotation
									JOINT RightForeArm
									{
										OFFSET -29.960503 0.000000 0.000000
										CHANNELS 3 Xrotation Yrotation Zrotation
										JOINT RightHand
										{
											OFFSET -27.849251 0.000000 0.000000
											CHANNELS 3 Xrotation Yrotation Zrotation
											End Site
											{
												OFFSET 0 0 0
											}
										}
									}
								}
							}
						}
					}
				}
			}
		}
	}
}
MOTION
Frames: 8
Frame Time: 0.03333333
0.761778 95.252869 4.342113 0.000000 0.000000 0.000000 -4.056679 6.146935 -1.685399 -6.314141 9.856433 12.844458 17.339820 -7.009183 0.228881 -8.259190 1.149147 -8.070095 0.000000 0.000000 0.000000 -4.056679 6.146935 -1.685399 -3.371375 -5.897517 0.966168 12.485368 3.400913 -0.638162 -4.917840 0.005346 0.732136 0.000000 0.000000 0.000000 -4.056679 6.146935 -1.685399 0.000000 0.000000 0.000000 4.902942 -0.340363 1.141115 5.814412 -0.121263 1.891506 0.000000 0.000000 0.000000 -4.300225 -0.608023 -1.115061 0.268313 -0.226332 0.191237 0.000000 0.000000 0.000000 -4.300225 -0.608023 -1.115061 1.687484 -7.781253 -3.494999 -0.672287 -2.004150 -76.954164 6.346023 -10.905148 1.751687 0.000000 0.000000 0.000000 -4.300225 -0.608023 -1.115061 2.069734 10.207993 4.096301 1.439769 3.704601 75.273917 15.720239 15.338361 -4.555483 0.000000 0.000000 0.000000 
0.886385 95.247040 4.400476 0.000000 0.000000 0.000000 -4.001057 6.027338 -1.697300 -6.274894 9.839390 12.717753 17.441684 -6.886903 0.246232 -8.419839 1.199116 -7.982154 0.000000 0.000000 0.000000 -4.001057 6.027338 -1.697300 -3.404368 -5.902798 0.856332 12.483273 3.426575 -0.638522 -4.944362 0.054919 0.837010 0.000000 0.000000 0.000000 -4.001057 6.027338 -1.697300 0.000000 0.000000 0.000000 4.885543 -0.318570 1.099080 5.821197 -0.106785 1.917306 0.000000 0.000000 0.000000 -4.288224 -0.596360 -1.086638 0.273643 -0.226919 0.180715 0.000000 0.000000 0.000000 -4.288224 -0.596360 -1.086638 1.710092 -7.716842 -3.464171 -0.640207 -1.994685 -77.013163 6.401013 -10.925480 1.756954 0.000000 0.000000 0.000000 -4.288224 -0.596360 -1.086638 2.108045 10.186224 3.925884 1.704442 4.137061 75.329419 15.726311 16.016505 -5.167393 0.000000 0.000000 0.000000 
1.025891 95.244011 4.483181 0.000000 0.000000 0.000000 -3.998714 5.921757 -1.681329 -6.143270 9.885278 12.566849 17.495316 -6.809851 0.256150 -8.581194 1.228825 -7.876195 0.000000 0.000000 0.000000 -3.998714 5.921757 -1.681329 -3.392238 -5.939930 0.724016 12.545484 3.557930 -0.656508 -5.028544 0.055180 0.942841 0.000000 0.000000 0.000000 -3.998714 5.921757 -1.681329 0.000000 0.000000 0.000000 4.952760 -0.305433 1.030119 5.780767 -0.096299 1.938783 0.000000 0.000000 0.000000 -4.313797 -0.587796 -1.059323 0.281626 -0.230330 0.176101 0.000000 0.000000 0.000000 -4.313797 -0.587796 -1.059323 1.725177 -7.668271 -3.419643 -0.663467 -1.883001 -77.088971 6.401422 -10.863925 1.697805 0.000000 0.000000 0.000000 -4.313797 -0.587796 -1.059323 2.143770 10.163301 3.767667 1.868292 4.550494 75.382038 15.821525 16.571748 -5.763651 0.000000 0.000000 0.000000 
1.182195 95.233978 4.556633 0.000000 0.000000 0.000000 -3.911832 5.823209 -1.691334 -6.130420 9.825689 12.396126 17.625325 -6.651198 0.289423 -8.766220 1.271252 -7.775105 0.000000 0.000000 0.000000 -3.911832 5.823209 -1.691334 -3.444182 -5.961343 0.585161 12.554000 3.616817 -0.658120 -5.079544 0.063494 1.069166 0.000000 0.000000 0.000000 -3.911832 5.823209 -1.691334 0.000001 0.000000 0.000000 4.912078 -0.295836 1.026511 5.773950 -0.091456 1.936357 0.000000 0.000000 0.000000 -4.297131 -0.582283 -1.054468 0.277606 -0.230496 0.172067 0.000000 0.000000 0.000000 -4.297131 -0.582283 -1.054468 1.736349 -7.615506 -3.398643 -0.683186 -1.787387 -77.118525 6.429660 -10.835451 1.658447 0.000000 0.000000 0.000000 -4.297131 -0.582283 -1.054468 2.177286 10.135590 3.620688 1.959051 4.933511 75.428941 15.740926 17.064215 -6.286260 0.000000 0.000000 0.000000 
1.349355 95.223045 4.643354 0.000000 0.000000 0.000000 -3.830745 5.734114 -1.715477 -6.137671 9.809104 12.250365 17.800702 -6.533195 0.320434 -8.985049 1.295032 -7.660330 0.000000 0.000000 0.000000 -3.830745 5.734114 -1.715477 -3.450121 -6.004380 0.453119 12.512936 3.719250 -0.654508 -5.119836 0.049946 1.197165 0.000000 0.000000 0.000000 -3.830745 5.734114 -1.715477 0.000000 0.000000 0.000000 4.883721 -0.282410 1.015397 5.773496 -0.086207 1.957465 0.000000 0.000000 0.000000 -4.264754 -0.578404 -1.023406 0.246843 -0.229259 0.153832 0.000000 0.000000 0.000000 -4.264754 -0.578404 -1.023406 1.728873 -7.543038 -3.464690 -0.761510 -1.733393 -77.093131 6.407567 -10.788644 1.590152 0.000000 0.000000 0.000000 -4.264754 -0.578404 -1.023406 2.218204 10.107013 3.436441 1.946284 5.291990 75.488876 15.732354 17.509204 -6.845782 0.000000 0.000000 0.000000 
1.531785 95.215790 4.752127 0.000000 0.000000 0.000000 -3.806579 5.600008 -1.720315 -6.013952 9.827166 12.075539 17.922406 -6.422379 0.334839 -9.220000 1.352260 -7.523652 0.000000 0.000000 0.000000 -3.806579 5.600008 -1.720315 -3.406119 -6.071190 0.288190 12.515078 3.822416 -0.649373 -5.199253 0.062667 1.333455 0.000000 0.000000 0.000000 -3.806579 5.600008 -1.720315 0.000000 0.000000 0.000000 4.952781 -0.254692 1.019673 5.718727 -0.064779 1.934557 0.000000 0.000000 0.000000 -4.278897 -0.552733 -1.031066 0.239051 -0.231776 0.154012 0.000000 0.000000 0.000000 -4.278897 -0.552733 -1.031066 1.746325 -7.507058 -3.396548 -0.792436 -1.661101 -77.164124 6.396788 -10.768341 1.535216 0.000000 0.000000 0.000000 -4.278897 -0.552733 -1.031066 2.243944 10.085131 3.326712 1.936969 5.597693 75.529352 15.555307 17.920635 -7.363472 0.000000 0.000000 0.000000 
1.729690 95.207253 4.870085 0.000000 0.000000 0.000000 -3.783613 5.494794 -1.721803 -5.897436 9.850775 11.887305 18.055941 -6.309402 0.358612 -9.462790 1.374636 -7.382363 0.000000 0.000000 0.000000 -3.783613 5.494794 -1.721803 -3.358378 -6.161272 0.097699 12.519633 4.053763 -0.645178 -5.286164 0.032052 1.479895 0.000000 0.000000 0.000000 -3.783613 5.494794 -1.721803 -0.000001 0.000000 0.000000 4.986068 -0.227036 0.986342 5.711834 -0.047053 1.952791 0.000000 0.000000 0.000000 -4.235806 -0.535215 -0.996138 0.203266 -0.235421 0.143951 0.000000 0.000000 0.000000 -4.235806 -0.535215 -0.996138 1.742162 -7.460042 -3.430646 -0.839379 -1.700787 -77.165995 6.401226 -10.777364 1.487723 0.000000 0.000000 0.000000 -4.235806 -0.535215 -0.996138 2.290862 10.072033 3.144958 1.878465 5.832932 75.612298 15.375207 18.311846 -7.894923 0.000000 0.000000 0.000000 
1.939871 95.194046 4.982080 0.000000 0.000000 0.000000 -3.714333 5.355250 -1.737388 -5.822341 9.808086 11.671505 18.223141 -6.097678 0.403848 -9.726594 1.404981 -7.252857 0.000000 0.000000 0.000000 -3.714333 5.355250 -1.737388 -3.360663 -6.225972 -0.081366 12.508418 4.202510 -0.653199 -5.353459 0.026746 1.646368 0.000000 0.000000 0.000000 -3.714333 5.355250 -1.737388 0.000001 0.000000 0.000000 5.021223 -0.186882 0.961322 5.660716 -0.020904 1.967138 0.000000 0.000000 0.000000 -4.228978 -0.508602 -0.961562 0.190103 -0.239070 0.136782 0.000000 0.000000 0.000000 -4.228978 -0.508602 -0.961562 1.740472 -7.413848 -3.437494 -0.850497 -1.754309 -77.195754 6.544703 -10.823635 1.474517 0.000000 0.000000 0.000000 -4.228978 -0.508602 -0.961562 2.302402 10.100107 2.979512 1.784275 6.001217 75.626580 15.264628 18.612064 -8.306658 0.000000 0.000000 0.000000 
